<svg width="455" height="114" viewBox="0 0 455 114" fill="none" xmlns="http://www.w3.org/2000/svg">
<circle cx="46.8103" cy="56.8353" r="46.8103" fill="#006A4E"/>
<g clip-path="url(#clip0_2_13)">
<path d="M39.3638 36.002C41.9145 37.4849 42.6119 39.971 42.6439 42.7814C42.6782 45.7299 42.6498 48.6796 42.6534 51.6281C42.6569 54.4187 44.3159 56.9532 46.8156 57.8581C47.5367 58.1192 48.3313 58.2485 49.0962 58.2683C51.2028 58.323 53.3129 58.2261 55.4183 58.3056C57.6007 58.3889 59.5687 59.1111 60.6913 61.2429C61.1472 62.1093 61.4728 63.1671 61.4965 64.1479C61.5794 67.6893 61.4574 71.2356 61.5143 74.7783C61.551 77.1152 64.1111 81.0568 67.2159 80.9524C70.6593 80.8368 74.1075 80.925 77.5533 80.925C77.5427 80.8418 77.5332 80.7585 77.5226 80.674C75.8778 80.2053 74.7623 79.068 73.8896 77.585C73.1827 76.383 72.8772 75.1002 72.8879 73.6943C72.9115 70.6067 72.8902 67.519 72.895 64.4313C72.8997 60.9781 70.7067 58.2994 67.0288 58.2882C64.7884 58.282 62.5409 58.4125 60.3112 58.2621C58.0436 58.1092 56.1335 56.5057 55.4692 53.8755C55.2715 53.0899 55.2715 52.2372 55.2656 51.4143C55.2431 48.4323 55.2916 45.449 55.2454 42.467C55.2016 39.6502 53.9251 37.5396 51.5521 36.2754C50.7398 35.8416 49.7416 35.6303 48.8215 35.6092C45.68 35.5358 42.5361 35.593 39.3934 35.6005C39.384 35.7335 39.3733 35.8665 39.3638 35.9995L39.3638 36.002Z" fill="white"/>
<path d="M54.2319 80.6647C51.9808 79.8915 50.0459 77.1233 50.0282 74.5775C50.0045 71.2413 50.059 67.905 50.0045 64.5699C49.9406 60.6593 47.5486 58.4878 44.1075 58.3113C41.7381 58.1894 39.3532 58.3921 36.9826 58.269C34.3526 58.1323 31.2099 55.5555 31.1495 52.2863C31.088 48.9861 31.1637 45.6846 31.1223 42.3843C31.0998 40.6441 30.6711 39.0232 29.6232 37.5962C28.6735 36.3022 27.4349 35.621 25.9311 35.5986C22.6522 35.5501 19.3721 35.5949 16.0933 35.6011C16.085 35.7316 16.0767 35.8634 16.0684 35.9939C18.5989 37.2954 19.9003 39.4968 19.9962 42.3806C20.1063 45.7132 20.1051 49.0544 20.0057 52.387C19.9287 54.9737 22.7303 58.3187 25.416 58.2876C27.5912 58.2628 29.7665 58.274 31.9417 58.2901C34.3124 58.3075 36.1655 59.2311 36.9542 61.737C37.2265 62.5997 37.3722 63.5432 37.3876 64.4518C37.4385 67.6116 37.4586 70.7739 37.3935 73.9324C37.3248 77.27 40.8855 81.0686 44.1146 80.9518C47.4906 80.8287 50.8737 80.9269 54.2532 80.9282C54.2461 80.8399 54.239 80.7529 54.2319 80.6647Z" fill="white"/>
</g>
<path d="M124.558 87H110.706V40.7335H123.542V53.0158H124.373C125.666 45.5356 130.56 39.81 139.888 39.81C150.231 39.81 154.479 46.9208 154.479 55.971V63.6359H140.626V58.8338C140.626 53.7546 138.595 51.5383 132.961 51.5383C126.774 51.5383 124.558 54.4011 124.558 60.219V87ZM173.347 36.0237H159.495V25.1266H173.347V36.0237ZM173.347 87H159.495V40.7335H173.347V87ZM215.044 87H197.959L176.904 40.7335H192.326L206.178 73.5171H207.102L221.047 40.7335H236.192L215.044 87ZM264.413 87.9235C248.991 87.9235 238.464 80.3509 238.464 63.9129C238.464 49.1372 248.899 39.81 264.136 39.81C279.282 39.81 289.348 47.752 289.348 62.2507C289.348 63.9129 289.163 65.1134 288.978 66.6834H251.3C251.669 73.7942 254.994 76.8417 263.952 76.8417C272.171 76.8417 275.034 74.7177 275.034 70.7467V69.8232H288.886V70.839C288.886 80.905 279.097 87.9235 264.413 87.9235ZM263.859 50.6148C255.64 50.6148 252.131 53.3852 251.485 59.3879H276.049C275.68 53.2929 271.986 50.6148 263.859 50.6148ZM309.074 87H295.222V40.7335H308.058V53.0158H308.889C310.182 45.5356 315.077 39.81 324.404 39.81C334.747 39.81 338.995 46.9208 338.995 55.971V63.6359H325.143V58.8338C325.143 53.7546 323.111 51.5383 317.478 51.5383C311.29 51.5383 309.074 54.4011 309.074 60.219V87ZM376.61 87H365.159C354.354 87 347.797 81.9208 347.797 70.285V52.1847H340.502V40.7335H347.797V31.7757H361.65V40.7335H376.61V52.1847H361.65V68.715C361.65 73.3324 363.404 74.533 368.299 74.533H376.61V87ZM406.363 87.9235C390.941 87.9235 380.413 80.3509 380.413 63.9129C380.413 49.1372 390.848 39.81 406.086 39.81C421.231 39.81 431.297 47.752 431.297 62.2507C431.297 63.9129 431.112 65.1134 430.927 66.6834H393.249C393.619 73.7942 396.943 76.8417 405.901 76.8417C414.12 76.8417 416.983 74.7177 416.983 70.7467V69.8232H430.835V70.839C430.835 80.905 421.046 87.9235 406.363 87.9235ZM405.809 50.6148C397.59 50.6148 394.081 53.3852 393.434 59.3879H417.999C417.629 53.2929 413.935 50.6148 405.809 50.6148ZM451.023 87H437.171V25.1266H451.023V87Z" fill="#006A4E"/>
<defs>
<clipPath id="clip0_2_13">
<rect width="45.3818" height="61.485" fill="white" transform="matrix(-4.37114e-08 -1 -1 4.37114e-08 77.5531 80.9544)"/>
</clipPath>
</defs>
</svg>
